<svg width="187" height="190" viewBox="0 0 187 190" fill="none" xmlns="http://www.w3.org/2000/svg">
<path d="M63.3599 65.0829C63.2333 65.1007 63.1339 65.168 63.0755 65.271L61.9671 67.2165L70.0354 71.9625L71.1438 70.017C71.2022 69.9121 71.1925 69.7835 71.1438 69.6647C71.097 69.546 71.0074 69.4292 70.873 69.352L63.765 65.172C63.6326 65.0928 63.4845 65.0671 63.3599 65.0829ZM61.8561 67.4065L60.9445 69.0254L69.0127 73.7695L69.9244 72.1505L61.8561 67.4065ZM60.8334 69.2253L59.3316 71.8616L67.3999 76.6056L68.9017 73.9694L60.8334 69.2253ZM58.7141 72.4256L49.107 78.3889L49.0446 78.4265C48.9901 78.4621 48.9356 78.4878 48.8849 78.5254C48.5655 78.7649 48.2947 79.0836 48.0824 79.4556C47.6714 80.182 47.5857 81.0034 47.7882 81.7515L64.776 91.7443C65.5143 91.5464 66.1746 91.0635 66.5876 90.3371C66.798 89.965 66.9129 89.5593 66.9557 89.1575C66.9713 89.0922 66.9713 89.0348 66.9713 88.9695V88.8943L67.2304 77.4349L58.718 72.4256H58.7141ZM61.0672 76.0911C61.4646 76.0614 61.8502 76.1306 62.1892 76.3305C63.5449 77.1242 63.3482 79.5704 63.3462 81.1617C63.3385 82.7549 63.543 85.1992 62.1892 85.9948C60.8334 86.7904 58.8485 85.3991 57.4947 84.6015C56.1409 83.8039 53.9592 82.7688 53.9592 81.1755C53.9573 79.5823 56.1428 78.5076 57.4947 77.71C58.5096 77.1123 59.877 76.1841 61.0672 76.0911ZM47.3948 82.4561L46.1987 84.552L46.1247 84.7024L44.7222 87.2872C43.7405 89.1001 43.6645 90.6637 44.056 92.0946C44.4476 93.5275 45.3436 94.8318 46.3604 95.948C49.0524 98.9049 53.6125 100.178 59.9958 100.178L64.3825 92.4469L47.3948 82.4561H47.3928H47.3948ZM44.9053 96.0866L53.295 111.752L54.9332 114.952C55.2565 115.569 55.5721 116.106 55.8818 116.609L56.6707 117.788C57.6856 119.146 58.7141 119.971 59.9588 120.474C60.8958 120.852 61.9749 121.054 63.2605 121.165L68.742 121.327C71.6268 121.364 75.4389 121.495 79.9522 121.653C80.1295 121.665 80.2658 121.665 80.4451 121.667L85.6694 121.818L88.675 121.503C89.7658 121.527 90.3619 120.597 90.3619 119.482C90.3619 118.37 89.7678 117.475 88.675 117.475L87.9854 117.161C87.7556 117.161 87.5783 116.981 87.5783 116.747C87.5783 116.514 87.7556 116.308 87.9854 116.308L88.675 116.007C89.7678 116.007 90.3619 115.098 90.3619 113.986C90.3619 112.872 89.7678 111.977 88.675 111.977L87.9854 111.663C87.7556 111.663 87.5783 111.483 87.5783 111.249V111.223C87.5783 110.99 87.7556 110.81 87.9854 110.81L88.675 110.495C89.7678 110.495 90.3619 109.6 90.3619 108.488C90.3619 107.374 89.7678 106.467 88.675 106.467L87.9854 106.164C87.7556 106.164 87.5783 105.959 87.5783 105.725C87.5783 105.494 87.7556 105.311 87.9854 105.311L88.675 104.999C89.7678 104.999 90.3619 104.102 90.3619 102.99C90.3619 101.876 89.7658 100.947 88.675 100.969L85.6557 100.654L80.3847 100.805L68.5452 101.145L64.3942 101.27L63.9988 101.284L61.5483 101.359C60.5373 101.389 59.5673 101.387 58.6284 101.359C58.3362 101.351 58.0538 101.335 57.7655 101.321C52.3152 101.046 48.172 99.7025 45.4975 96.7635C45.2988 96.5457 45.0962 96.3201 44.9053 96.0866Z" fill="#F7941E"/>
<path d="M103.991 30.5365C103.678 30.5326 103.349 30.5365 103.006 30.5484L99.4704 30.7107L81.9644 31.1382C82.2605 31.1896 82.543 31.247 82.8274 31.3143C86.6628 32.205 89.8847 35.2014 92.8436 39.8742C92.9994 40.1196 93.1455 40.3591 93.2994 40.6144C93.6344 41.1706 93.9792 41.7742 94.3084 42.3719C94.3415 42.4333 94.361 42.4729 94.396 42.5342L94.7642 43.1874L94.7895 43.225L98.6815 50.1164L115.669 40.1256C115.56 39.9395 115.439 39.7258 115.338 39.5477L114.487 38.0158L114.389 37.8792L112.899 35.3439C112.564 34.7779 112.194 34.3147 111.814 33.9249C111.294 33.248 110.774 32.6839 110.213 32.2307C109.163 31.3816 107.946 30.8789 106.282 30.6612L104.891 30.5603C104.601 30.5484 104.303 30.5385 103.991 30.5365ZM79.7847 32.1674C79.2276 32.1792 78.6764 32.2426 78.1465 32.3811C77.1141 32.6503 76.1441 33.1846 75.2889 34.1386C75.1389 34.3405 74.9831 34.5443 74.8331 34.766L71.9502 39.5219C70.4776 42.0493 68.4654 45.3466 66.0733 49.2495C65.9798 49.4039 65.9097 49.5207 65.8143 49.677L63.0794 54.2074L61.8366 57.0198C61.2717 57.9737 61.7645 58.9613 62.7112 59.5175C63.656 60.0736 64.7137 60.0043 65.2611 59.0405L65.8766 58.5892C65.9915 58.3874 66.2331 58.322 66.4318 58.4388C66.6285 58.5556 66.7181 58.8129 66.6032 59.0148L66.5155 59.7688C65.9701 60.7327 66.4434 61.7104 67.3901 62.2665C68.3368 62.8227 69.3945 62.7534 69.9419 61.7895L70.5438 61.3383C70.6587 61.1344 70.9003 61.0711 71.099 61.1879C71.1126 61.1899 71.1145 61.1839 71.1145 61.1879C71.1282 61.1899 71.1301 61.1978 71.1301 61.1998C71.3288 61.3165 71.3931 61.5619 71.2782 61.7638L71.2041 62.5298C70.6587 63.4936 71.1204 64.4594 72.0671 65.0156C73.0138 65.5717 74.0832 65.5025 74.6286 64.5386L75.2324 64.0874C75.3474 63.8835 75.6006 63.832 75.7993 63.9488C75.998 64.0656 76.0623 64.311 75.9473 64.5129L75.8733 65.2788C75.3279 66.2427 75.7895 67.2085 76.7362 67.7646C77.6829 68.3208 78.7699 68.2614 79.2977 67.2877L81.0723 64.7761L83.5851 60.0578L89.2146 49.4395L91.1859 45.7108L91.3709 45.3605L92.5299 43.1636C92.6721 42.8944 92.8163 42.6332 92.9604 42.3719C89.7736 36.759 86.4291 33.3905 82.5761 32.4939C81.6645 32.2821 80.7197 32.1476 79.7906 32.1674H79.7847ZM116.065 40.8143L99.0886 50.819C98.886 51.5691 98.96 52.3905 99.371 53.1168C99.5814 53.4889 99.8775 53.7937 100.197 54.0332C100.25 54.0708 100.29 54.0985 100.345 54.1321L100.407 54.1698L110.014 60.133L118.527 55.1237L118.27 43.6643V43.5891C118.258 43.5238 118.285 43.4664 118.27 43.4011C118.227 42.9993 118.085 42.6055 117.874 42.2334C117.463 41.507 116.801 41.0122 116.065 40.8143H116.063H116.065ZM112.664 46.3125C112.952 46.3263 113.223 46.4015 113.478 46.5519C114.832 47.3476 114.647 49.8156 114.647 51.4088C114.652 52.6042 114.758 54.2648 114.241 55.3632C114.068 55.7293 113.815 56.042 113.478 56.2419C112.124 57.0395 110.149 55.6462 108.795 54.8486C107.443 54.051 105.26 53.002 105.26 51.4088C105.263 49.8156 107.441 48.7528 108.795 47.9571C109.812 47.3594 111.179 46.4233 112.368 46.3263C112.467 46.3184 112.568 46.3085 112.664 46.3125ZM118.7 55.953L110.644 60.697L112.122 63.3452L120.19 58.5873L118.7 55.953ZM120.313 58.7891L112.245 63.5332L113.156 65.1521L121.225 60.4081L120.313 58.7891ZM121.336 60.5961L113.267 65.3421L114.364 67.2995C114.423 67.4044 114.534 67.4579 114.66 67.4757C114.785 67.4915 114.933 67.4658 115.065 67.3866L122.173 63.2086C122.308 63.1294 122.409 63.0127 122.458 62.8939C122.504 62.7752 122.491 62.6584 122.432 62.5555L121.338 60.5961H121.336Z" fill="#F7941E"/>
<path d="M128.592 64.7524C128.233 64.7702 127.861 64.8949 127.507 65.1027C126.56 65.6588 126.098 66.6365 126.644 67.6004L126.718 68.3663C126.833 68.5682 126.77 68.8156 126.57 68.9304C126.371 69.0471 126.106 68.9957 125.991 68.7938L125.387 68.3287C124.842 67.3649 123.771 67.2956 122.826 67.8517C121.879 68.4079 121.416 69.3856 121.963 70.3494L122.051 71.1154C122.164 71.3172 122.101 71.5627 121.903 71.6794C121.887 71.6834 121.887 71.6775 121.887 71.6794C121.871 71.6834 121.871 71.6913 121.871 71.6933C121.673 71.8101 121.431 71.7447 121.316 71.5429L120.701 71.0896C120.153 70.1258 119.098 70.0446 118.151 70.6008C117.204 71.1569 116.729 72.1346 117.276 73.0985L117.362 73.8644C117.477 74.0663 117.389 74.3256 117.191 74.4424C116.992 74.5591 116.75 74.4938 116.635 74.2919L116.032 73.8387C115.486 72.8749 114.428 72.7937 113.482 73.3499C112.535 73.906 112.042 74.8936 112.607 75.8476L113.852 78.6718L116.612 83.2398L122.82 93.5195L125 97.1216L125.21 97.462L126.504 99.5956C126.663 99.8588 126.807 100.112 126.959 100.373C133.296 100.362 137.817 99.0869 140.497 96.1439C141.514 95.0277 142.41 93.7214 142.802 92.2905C143.143 91.0436 143.135 89.6958 142.48 88.1738L142.465 88.1481L140.901 85.211L140.653 84.7459L139.866 83.2536C138.454 80.6906 136.666 77.2607 134.545 73.1994C134.461 73.0391 134.395 72.9224 134.311 72.7601L131.821 68.0774L130.06 65.5796C129.731 64.9701 129.178 64.7187 128.582 64.7524H128.592ZM142.007 96.2805C141.814 96.516 141.614 96.7416 141.415 96.9593C138.738 99.8964 134.595 101.242 129.145 101.515C128.859 101.531 128.576 101.545 128.282 101.553C127.643 101.571 126.948 101.561 126.276 101.553C126.206 101.551 126.172 101.555 126.102 101.553H125.265L117.516 101.541V121.537H119.894L120.054 121.523L122.96 121.473C123.556 121.461 124.086 121.38 124.575 121.26C125.465 121.139 126.25 120.953 126.952 120.67C128.198 120.167 129.227 119.342 130.242 117.984L131.031 116.804C131.34 116.302 131.656 115.765 131.979 115.148L133.617 111.948L142.005 96.2825L142.007 96.2805ZM114.621 100.649C114.201 100.649 113.79 100.749 113.427 100.914C113.369 100.939 113.324 100.971 113.267 101.001L113.205 101.038L103.325 106.537V116.551L113.205 122.049L113.267 122.087C113.324 122.119 113.369 122.15 113.427 122.176C113.79 122.338 114.201 122.427 114.621 122.427C115.443 122.427 116.18 122.089 116.715 121.537V101.553C116.18 101.001 115.443 100.649 114.621 100.649ZM112.009 106.473C112.406 106.442 112.792 106.511 113.131 106.713C114.485 107.508 114.29 109.951 114.288 111.544C114.284 113.137 114.497 115.579 113.143 116.377C111.789 117.175 109.792 115.791 108.437 114.995C107.422 114.4 105.945 113.654 105.271 112.648C105.047 112.314 104.915 111.944 104.915 111.544C104.907 109.951 107.083 108.9 108.437 108.104C109.453 107.508 110.819 106.566 112.009 106.473ZM95.072 106.8C94.9531 106.8 94.8402 106.873 94.7642 106.976C94.6863 107.079 94.6415 107.207 94.6415 107.364V115.724C94.6415 115.882 94.6882 116.023 94.7642 116.126C94.8402 116.229 94.9531 116.288 95.072 116.288H97.277V106.8H95.072ZM97.4854 106.8L97.501 116.288H99.3243V106.8H97.4854ZM99.5424 106.8L99.558 116.288L102.54 116.302V106.8H99.5424Z" fill="#F7941E"/>
<path d="M21.3026 142.824V150.226H16.7445V131.194H24.131C26.301 131.194 27.9918 131.764 29.2034 132.904C30.413 134.044 31.0189 135.42 31.0189 137.029C31.0189 138.127 30.6877 139.202 30.0293 140.251C29.369 141.302 28.2937 142.044 26.8036 142.476L31.3929 150.226H26.0556L21.8403 142.824H21.3026ZM21.3026 134.717V139.301H24.131C24.8264 139.301 25.3738 139.095 25.7751 138.684C26.1744 138.268 26.375 137.722 26.375 137.045C26.375 136.364 26.1685 135.808 25.7595 135.374C25.3485 134.937 24.805 134.717 24.131 134.717H21.3026Z" fill="#011B0C"/>
<path d="M45.2358 131.147V134.67H38.4571V138.763H44.4333V142.286H38.4571V146.703H45.2358V150.226H33.8989V131.147H45.2358Z" fill="#011B0C"/>
<path d="M50.183 147.637C48.3227 145.801 47.3936 143.473 47.3936 140.655C47.3936 137.836 48.3227 135.513 50.183 133.68C52.0413 131.844 54.3145 130.925 57.0007 130.925C59.083 130.925 60.9316 131.487 62.5484 132.611C64.169 133.732 65.2988 135.283 65.9377 137.266H60.4992C59.7862 135.879 58.6467 135.184 57.0786 135.184C55.5144 135.184 54.2834 135.681 53.3854 136.673C52.4854 137.666 52.0374 138.992 52.0374 140.655C52.0374 142.317 52.4854 143.647 53.3854 144.645C54.2834 145.638 55.5144 146.133 57.0786 146.133C58.6467 146.133 59.7862 145.436 60.4992 144.043H65.9377C65.2988 146.034 64.169 147.59 62.5484 148.714C60.9316 149.834 59.083 150.392 57.0007 150.392C54.3145 150.392 52.0413 149.474 50.183 147.637Z" fill="#011B0C"/>
<path d="M68.2078 150.226V131.194H72.7659V150.226H68.2078Z" fill="#011B0C"/>
<path d="M77.7954 147.637C75.9352 145.801 75.006 143.473 75.006 140.655C75.006 137.836 75.9352 135.513 77.7954 133.68C79.6537 131.844 81.927 130.925 84.6131 130.925C86.6955 130.925 88.544 131.487 90.1608 132.611C91.7815 133.732 92.9113 135.283 93.5502 137.266H88.1116C87.3987 135.879 86.2591 135.184 84.6911 135.184C83.1269 135.184 81.8958 135.681 80.9978 136.673C80.0979 137.666 79.6499 138.992 79.6499 140.655C79.6499 142.317 80.0979 143.647 80.9978 144.645C81.8958 145.638 83.1269 146.133 84.6911 146.133C86.2591 146.133 87.3987 145.436 88.1116 144.043H93.5502C92.9113 146.034 91.7815 147.59 90.1608 148.714C88.544 149.834 86.6955 150.392 84.6131 150.392C81.927 150.392 79.6537 149.474 77.7954 147.637Z" fill="#011B0C"/>
<path d="M95.8202 131.194H100.378V146.703H106.066V150.226H95.8202V131.194Z" fill="#011B0C"/>
<path d="M119.83 150.226L118.786 147.028H112.07L111.026 150.226H106.171L112.677 131.147H118.225L124.708 150.226H119.83ZM113.215 143.505H117.641L115.428 136.728L113.215 143.505Z" fill="#011B0C"/>
<path d="M130.845 142.824V150.226H126.287V131.194H133.674C135.844 131.194 137.535 131.764 138.746 132.904C139.956 134.044 140.562 135.42 140.562 137.029C140.562 138.127 140.231 139.202 139.572 140.251C138.912 141.302 137.837 142.044 136.346 142.476L140.936 150.226H135.598L131.383 142.824H130.845ZM130.845 134.717V139.301H133.674C134.369 139.301 134.917 139.095 135.318 138.684C135.717 138.268 135.918 137.722 135.918 137.045C135.918 136.364 135.711 135.808 135.302 135.374C134.891 134.937 134.348 134.717 133.674 134.717H130.845Z" fill="#011B0C"/>
<path d="M142.156 134.717V131.194H156.937V134.717H151.818V150.226H147.252V134.717H142.156Z" fill="#011B0C"/>
<path d="M170.332 131.147V134.67H163.554V138.763H169.53V142.286H163.554V146.703H170.332V150.226H158.995V131.147H170.332Z" fill="#011B0C"/>
</svg>
