<svg width="7" height="8" viewBox="0 0 7 8" fill="none" xmlns="http://www.w3.org/2000/svg">
<path d="M1.232 7.98927C1.064 7.98927 0.924 7.94261 0.812 7.84927C0.709333 7.74661 0.653333 7.62061 0.644 7.47127C0.644 7.32194 0.709333 7.15861 0.84 6.98127L3.206 4.02727V4.72727L0.994 1.96927C0.844667 1.80127 0.774667 1.64261 0.784 1.49327C0.793333 1.33461 0.854 1.20861 0.966 1.11527C1.078 1.02194 1.21333 0.975273 1.372 0.975273C1.54933 0.975273 1.694 1.00794 1.806 1.07327C1.92733 1.12927 2.03933 1.22727 2.142 1.36727L4.004 3.73327H3.5L5.376 1.36727C5.47867 1.22727 5.586 1.12927 5.698 1.07327C5.81933 1.00794 5.964 0.975273 6.132 0.975273C6.3 0.975273 6.43533 1.02661 6.538 1.12927C6.65 1.22261 6.706 1.34861 6.706 1.50727C6.71533 1.65661 6.65 1.81527 6.51 1.98327L4.298 4.69927V4.06927L6.664 6.98127C6.804 7.14927 6.86933 7.31261 6.86 7.47127C6.86 7.62061 6.804 7.74661 6.692 7.84927C6.58 7.94261 6.44 7.98927 6.272 7.98927C6.104 7.98927 5.95933 7.95661 5.838 7.89127C5.726 7.82594 5.614 7.72794 5.502 7.59727L3.5 5.07727H3.976L1.988 7.59727C1.88533 7.71861 1.77333 7.81661 1.652 7.89127C1.54 7.95661 1.4 7.98927 1.232 7.98927Z" fill="white"/>
</svg>
