<svg width="54" height="41" viewBox="0 0 54 41" fill="none" xmlns="http://www.w3.org/2000/svg">
<g clip-path="url(#clip0_519_126)">
<path d="M16.6847 11.9226C16.6413 11.9286 16.6073 11.9513 16.5873 11.986L16.208 12.6413L18.9693 14.24L19.3487 13.5846C19.3687 13.5493 19.3653 13.506 19.3487 13.466C19.3327 13.426 19.302 13.3866 19.256 13.3606L16.8233 11.9526C16.778 11.926 16.7273 11.9173 16.6847 11.9226ZM16.17 12.7053L15.858 13.2506L18.6193 14.8486L18.9313 14.3033L16.17 12.7053ZM15.82 13.318L15.306 14.206L18.0673 15.804L18.5813 14.916L15.82 13.318ZM15.0947 14.396L11.8067 16.4046L11.7853 16.4173C11.7667 16.4293 11.748 16.438 11.7307 16.4506C11.6213 16.5313 11.5287 16.6386 11.456 16.764C11.3153 17.0086 11.286 17.2853 11.3553 17.5373L17.1693 20.9033C17.422 20.8366 17.648 20.674 17.7893 20.4293C17.8613 20.304 17.9007 20.1673 17.9153 20.032C17.9207 20.01 17.9207 19.9906 17.9207 19.9686V19.9433L18.0093 16.0833L15.096 14.396H15.0947ZM15.9 15.6306C16.036 15.6206 16.168 15.644 16.284 15.7113C16.748 15.9786 16.6807 16.8026 16.68 17.3386C16.6773 17.8753 16.7473 18.6986 16.284 18.9666C15.82 19.2346 15.1407 18.766 14.6773 18.4973C14.214 18.2286 13.4673 17.88 13.4673 17.3433C13.4667 16.8066 14.2147 16.4446 14.6773 16.176C15.0247 15.9746 15.4927 15.662 15.9 15.6306ZM11.2207 17.7746L10.8113 18.4806L10.786 18.5313L10.306 19.402C9.97 20.0126 9.944 20.5393 10.078 21.0213C10.212 21.504 10.5187 21.9433 10.8667 22.3193C11.788 23.3153 13.3487 23.744 15.5333 23.744L17.0347 21.14L11.2207 17.7746H11.22H11.2207ZM10.3687 22.366L13.24 27.6426L13.8007 28.7206C13.9113 28.9286 14.0193 29.1093 14.1253 29.2786L14.3953 29.676C14.7427 30.1333 15.0947 30.4113 15.5207 30.5806C15.8413 30.708 16.2107 30.776 16.6507 30.8133L18.5267 30.868C19.514 30.8806 20.8187 30.9246 22.3633 30.978C22.424 30.982 22.4707 30.982 22.532 30.9826L24.32 31.0333L25.3487 30.9273C25.722 30.9353 25.926 30.622 25.926 30.2466C25.926 29.872 25.7227 29.57 25.3487 29.57L25.1127 29.4646C25.034 29.4646 24.9733 29.404 24.9733 29.3253C24.9733 29.2466 25.034 29.1773 25.1127 29.1773L25.3487 29.076C25.7227 29.076 25.926 28.77 25.926 28.3953C25.926 28.02 25.7227 27.7186 25.3487 27.7186L25.1127 27.6126C25.034 27.6126 24.9733 27.552 24.9733 27.4733V27.4646C24.9733 27.386 25.034 27.3253 25.1127 27.3253L25.3487 27.2193C25.7227 27.2193 25.926 26.918 25.926 26.5433C25.926 26.168 25.7227 25.8626 25.3487 25.8626L25.1127 25.7606C25.034 25.7606 24.9733 25.6913 24.9733 25.6126C24.9733 25.5346 25.034 25.4733 25.1127 25.4733L25.3487 25.368C25.7227 25.368 25.926 25.066 25.926 24.6913C25.926 24.316 25.722 24.0033 25.3487 24.0106L24.3153 23.9046L22.5113 23.9553L18.4593 24.07L17.0387 24.112L16.9033 24.1166L16.0647 24.142C15.7187 24.152 15.3867 24.1513 15.0653 24.142C14.9653 24.1393 14.8687 24.134 14.77 24.1293C12.9047 24.0366 11.4867 23.584 10.5713 22.594C10.5033 22.5206 10.434 22.4446 10.3687 22.366Z" fill="white"/>
<path d="M30.5907 0.286022C30.4833 0.284689 30.3707 0.286022 30.2533 0.290022L29.0433 0.344689L23.052 0.488689C23.1533 0.506023 23.25 0.525356 23.3473 0.548022C24.66 0.848022 25.7627 1.85736 26.7753 3.43136C26.8287 3.51402 26.8787 3.59469 26.9313 3.68069C27.046 3.86802 27.164 4.07136 27.2767 4.27269C27.288 4.29336 27.2947 4.30669 27.3067 4.32736L27.4327 4.54736L27.4413 4.56002L28.7733 6.88136L34.5873 3.51602C34.55 3.45336 34.5087 3.38136 34.474 3.32136L34.1827 2.80536L34.1493 2.75936L33.6393 1.90536C33.5247 1.71469 33.398 1.55869 33.268 1.42736C33.09 1.19936 32.912 1.00936 32.72 0.856689C32.3607 0.570689 31.944 0.401356 31.3747 0.328022L30.8987 0.294022C30.7993 0.290023 30.6973 0.286689 30.5907 0.286022ZM22.306 0.835356C22.1153 0.839356 21.9267 0.860689 21.7453 0.907356C21.392 0.998022 21.06 1.17802 20.7673 1.49936C20.716 1.56736 20.6627 1.63602 20.6113 1.71069L19.6247 3.31269C19.1207 4.16402 18.432 5.27469 17.6133 6.58936C17.5813 6.64136 17.5573 6.68069 17.5247 6.73336L16.5887 8.25936L16.1633 9.20669C15.97 9.52802 16.1387 9.86069 16.4627 10.048C16.786 10.2354 17.148 10.212 17.3353 9.88736L17.546 9.73536C17.5853 9.66736 17.668 9.64536 17.736 9.68469C17.8033 9.72402 17.834 9.81069 17.7947 9.87869L17.7647 10.1327C17.578 10.4574 17.74 10.7867 18.064 10.974C18.388 11.1614 18.75 11.138 18.9373 10.8134L19.1433 10.6614C19.1827 10.5927 19.2653 10.5714 19.3333 10.6107C19.338 10.6114 19.3387 10.6094 19.3387 10.6107C19.3433 10.6114 19.344 10.614 19.344 10.6147C19.412 10.654 19.434 10.7367 19.3947 10.8047L19.3693 11.0627C19.1827 11.3874 19.3407 11.7127 19.6647 11.9C19.9887 12.0874 20.3547 12.064 20.5413 11.7394L20.748 11.5874C20.7873 11.5187 20.874 11.5014 20.942 11.5407C21.01 11.58 21.032 11.6627 20.9927 11.7307L20.9673 11.9887C20.7807 12.3134 20.9387 12.6387 21.2627 12.826C21.5867 13.0134 21.9587 12.9934 22.1393 12.6654L22.7467 11.8194L23.6067 10.23L25.5333 6.65336L26.208 5.39736L26.2713 5.27936L26.668 4.53936C26.7167 4.44869 26.766 4.36069 26.8153 4.27269C25.7247 2.38202 24.58 1.24736 23.2613 0.945356C22.9493 0.874023 22.626 0.828689 22.308 0.835356H22.306ZM34.7227 3.74802L28.9127 7.11802C28.8433 7.37069 28.8687 7.64736 29.0093 7.89202C29.0813 8.01736 29.1827 8.12002 29.292 8.20069C29.31 8.21336 29.324 8.22269 29.3427 8.23402L29.364 8.24669L32.652 10.2554L35.5653 8.56802L35.4773 4.70802V4.68269C35.4733 4.66069 35.4827 4.64136 35.4773 4.61936C35.4627 4.48402 35.414 4.35136 35.342 4.22602C35.2013 3.98136 34.9747 3.81469 34.7227 3.74802H34.722H34.7227ZM33.5587 5.60002C33.6573 5.60469 33.75 5.63002 33.8373 5.68069C34.3007 5.94869 34.2373 6.78002 34.2373 7.31669C34.2393 7.71936 34.2753 8.27869 34.0987 8.64869C34.0393 8.77202 33.9527 8.87736 33.8373 8.94469C33.374 9.21336 32.698 8.74402 32.2347 8.47536C31.772 8.20669 31.0247 7.85336 31.0247 7.31669C31.026 6.78002 31.7713 6.42202 32.2347 6.15402C32.5827 5.95269 33.0507 5.63736 33.4573 5.60469C33.4913 5.60202 33.526 5.59869 33.5587 5.60002ZM35.6247 8.84736L32.8673 10.4454L33.3733 11.3374L36.1347 9.73469L35.6247 8.84736ZM36.1767 9.80269L33.4153 11.4007L33.7273 11.946L36.4887 10.348L36.1767 9.80269ZM36.5267 10.4114L33.7653 12.01L34.1407 12.6694C34.1607 12.7047 34.1987 12.7227 34.242 12.7287C34.2847 12.734 34.3353 12.7254 34.3807 12.6987L36.8133 11.2914C36.8593 11.2647 36.894 11.2254 36.9107 11.1854C36.9267 11.1454 36.922 11.106 36.902 11.0714L36.5273 10.4114H36.5267Z" fill="white"/>
<path d="M39.01 11.8114C38.8873 11.8174 38.76 11.8594 38.6387 11.9294C38.3147 12.1167 38.1567 12.446 38.3433 12.7707L38.3687 13.0287C38.408 13.0967 38.3867 13.18 38.318 13.2187C38.25 13.258 38.1593 13.2407 38.12 13.1727L37.9133 13.016C37.7267 12.6914 37.36 12.668 37.0367 12.8554C36.7127 13.0427 36.554 13.372 36.7413 13.6967L36.7713 13.9547C36.81 14.0227 36.7887 14.1054 36.7207 14.1447C36.7153 14.146 36.7153 14.144 36.7153 14.1447C36.71 14.146 36.71 14.1487 36.71 14.1494C36.642 14.1887 36.5593 14.1667 36.52 14.0987L36.3093 13.946C36.122 13.6214 35.7607 13.594 35.4367 13.7814C35.1127 13.9687 34.95 14.298 35.1373 14.6227L35.1667 14.8807C35.206 14.9487 35.176 15.036 35.108 15.0754C35.04 15.1147 34.9573 15.0927 34.918 15.0247L34.7113 14.872C34.5247 14.5474 34.1627 14.52 33.8387 14.7074C33.5147 14.8947 33.346 15.2274 33.5393 15.5487L33.9653 16.5L34.91 18.0387L37.0347 21.5014L37.7807 22.7147L37.8527 22.8294L38.2953 23.548C38.35 23.6367 38.3993 23.722 38.4513 23.81C40.62 23.806 42.1673 23.3767 43.0847 22.3854C43.4327 22.0094 43.7393 21.5694 43.8733 21.0874C43.99 20.6674 43.9873 20.2134 43.7633 19.7007L43.758 19.692L43.2227 18.7027L43.138 18.546L42.8687 18.0434C42.3853 17.18 41.7733 16.0247 41.0473 14.6567C41.0187 14.6027 40.996 14.5634 40.9673 14.5087L40.1153 12.9314L39.5127 12.09C39.4 11.8847 39.2107 11.8 39.0067 11.8114H39.01ZM43.6013 22.4314C43.5353 22.5107 43.4667 22.5867 43.3987 22.66C42.4827 23.6494 41.0647 24.1027 39.1993 24.1947C39.1013 24.2 39.0047 24.2047 38.904 24.2074C38.6853 24.2134 38.4473 24.21 38.2173 24.2074C38.1933 24.2067 38.182 24.208 38.158 24.2074H37.8713L35.2193 24.2034V30.9387H36.0333L36.088 30.934L37.0827 30.9174C37.2867 30.9134 37.468 30.886 37.6353 30.8454C37.94 30.8047 38.2087 30.742 38.4487 30.6467C38.8753 30.4774 39.2273 30.1994 39.5747 29.742L39.8447 29.3447C39.9507 29.1754 40.0587 28.9947 40.1693 28.7867L40.73 27.7087L43.6007 22.432L43.6013 22.4314ZM34.2287 23.9027C34.0847 23.9027 33.944 23.9367 33.82 23.992C33.8 24.0007 33.7847 24.0114 33.7653 24.0214L33.744 24.034L30.3627 25.886V29.2594L33.744 31.1114L33.7653 31.124C33.7847 31.1347 33.8 31.1454 33.82 31.154C33.944 31.2087 34.0847 31.2387 34.2287 31.2387C34.51 31.2387 34.762 31.1247 34.9453 30.9387V24.2074C34.762 24.0214 34.51 23.9027 34.2287 23.9027ZM33.3347 25.8647C33.4707 25.854 33.6027 25.8774 33.7187 25.9454C34.182 26.2134 34.1153 27.036 34.1147 27.5727C34.1133 28.1094 34.186 28.932 33.7227 29.2007C33.2593 29.4694 32.576 29.0034 32.112 28.7354C31.7647 28.5347 31.2593 28.2834 31.0287 27.9447C30.952 27.832 30.9067 27.7074 30.9067 27.5727C30.904 27.036 31.6487 26.682 32.112 26.414C32.46 26.2134 32.9273 25.896 33.3347 25.8647ZM27.538 25.9747C27.4973 25.9747 27.4587 25.9994 27.4327 26.034C27.406 26.0687 27.3907 26.112 27.3907 26.1647V28.9807C27.3907 29.034 27.4067 29.0814 27.4327 29.116C27.4587 29.1507 27.4973 29.1707 27.538 29.1707H28.2927V25.9747H27.538ZM28.364 25.9747L28.3693 29.1707H28.9933V25.9747H28.364ZM29.068 25.9747L29.0733 29.1707L30.094 29.1754V25.9747H29.068Z" fill="white"/>
<path d="M2.29349 38.1639V40.6572H0.73349V34.2466H3.26149C4.00416 34.2466 4.58282 34.4386 4.99749 34.8226C5.41149 35.2066 5.61882 35.6699 5.61882 36.2119C5.61882 36.5819 5.50549 36.9439 5.28016 37.2972C5.05416 37.6512 4.68616 37.9012 4.17616 38.0466L5.74682 40.6572H3.92016L2.47749 38.1639H2.29349ZM2.29349 35.4332V36.9772H3.26149C3.49949 36.9772 3.68682 36.9079 3.82416 36.7692C3.96082 36.6292 4.02949 36.4452 4.02949 36.2172C4.02949 35.9879 3.95882 35.8006 3.81882 35.6546C3.67816 35.5072 3.49216 35.4332 3.26149 35.4332H2.29349Z" fill="#011B0C"/>
<path d="M10.484 34.2305V35.4172H8.16403V36.7959H10.2094V37.9825H8.16403V39.4705H10.484V40.6572H6.60403V34.2305H10.484Z" fill="#011B0C"/>
<path d="M12.1768 39.7852C11.5401 39.1666 11.2221 38.3826 11.2221 37.4332C11.2221 36.4839 11.5401 35.7012 12.1768 35.0839C12.8128 34.4652 13.5908 34.1559 14.5101 34.1559C15.2228 34.1559 15.8554 34.3452 16.4088 34.7239C16.9634 35.1012 17.3501 35.6239 17.5688 36.2919H15.7074C15.4634 35.8246 15.0734 35.5906 14.5368 35.5906C14.0014 35.5906 13.5801 35.7579 13.2728 36.0919C12.9648 36.4266 12.8114 36.8732 12.8114 37.4332C12.8114 37.9932 12.9648 38.4412 13.2728 38.7772C13.5801 39.1119 14.0014 39.2786 14.5368 39.2786C15.0734 39.2786 15.4634 39.0439 15.7074 38.5746H17.5688C17.3501 39.2452 16.9634 39.7692 16.4088 40.1479C15.8554 40.5252 15.2228 40.7132 14.5101 40.7132C13.5908 40.7132 12.8128 40.4039 12.1768 39.7852Z" fill="#011B0C"/>
<path d="M18.3451 40.6572V34.2466H19.9051V40.6572H18.3451Z" fill="#011B0C"/>
<path d="M21.6262 39.7852C20.9896 39.1666 20.6716 38.3826 20.6716 37.4332C20.6716 36.4839 20.9896 35.7012 21.6262 35.0839C22.2622 34.4652 23.0402 34.1559 23.9596 34.1559C24.6722 34.1559 25.3049 34.3452 25.8582 34.7239C26.4129 35.1012 26.7996 35.6239 27.0182 36.2919H25.1569C24.9129 35.8246 24.5229 35.5906 23.9862 35.5906C23.4509 35.5906 23.0296 35.7579 22.7222 36.0919C22.4142 36.4266 22.2609 36.8732 22.2609 37.4332C22.2609 37.9932 22.4142 38.4412 22.7222 38.7772C23.0296 39.1119 23.4509 39.2786 23.9862 39.2786C24.5229 39.2786 24.9129 39.0439 25.1569 38.5746H27.0182C26.7996 39.2452 26.4129 39.7692 25.8582 40.1479C25.3049 40.5252 24.6722 40.7132 23.9596 40.7132C23.0402 40.7132 22.2622 40.4039 21.6262 39.7852Z" fill="#011B0C"/>
<path d="M27.7946 34.2466H29.3546V39.4706H31.3013V40.6572H27.7946V34.2466Z" fill="#011B0C"/>
<path d="M36.0115 40.6572L35.6542 39.5799H33.3556L32.9982 40.6572H31.3369L33.5636 34.2305H35.4622L37.6809 40.6572H36.0115ZM33.7476 38.3932H35.2622L34.5049 36.1105L33.7476 38.3932Z" fill="#011B0C"/>
<path d="M39.7809 38.1639V40.6572H38.2209V34.2466H40.7489C41.4916 34.2466 42.0703 34.4386 42.4849 34.8226C42.8989 35.2066 43.1063 35.6699 43.1063 36.2119C43.1063 36.5819 42.9929 36.9439 42.7676 37.2972C42.5416 37.6512 42.1736 37.9012 41.6636 38.0466L43.2343 40.6572H41.4076L39.9649 38.1639H39.7809ZM39.7809 35.4332V36.9772H40.7489C40.9869 36.9772 41.1743 36.9079 41.3116 36.7692C41.4483 36.6292 41.5169 36.4452 41.5169 36.2172C41.5169 35.9879 41.4463 35.8006 41.3063 35.6546C41.1656 35.5072 40.9796 35.4332 40.7489 35.4332H39.7809Z" fill="#011B0C"/>
<path d="M43.6515 35.4332V34.2466H48.7101V35.4332H46.9581V40.6572H45.3955V35.4332H43.6515Z" fill="#011B0C"/>
<path d="M53.2942 34.2305V35.4172H50.9742V36.7959H53.0196V37.9825H50.9742V39.4705H53.2942V40.6572H49.4142V34.2305H53.2942Z" fill="#011B0C"/>
</g>
<defs>
<clipPath id="clip0_519_126">
<rect width="54" height="41" fill="white"/>
</clipPath>
</defs>
</svg>
