<svg width="29" height="29" viewBox="0 0 29 29" fill="none" xmlns="http://www.w3.org/2000/svg">
<path d="M0 2.9375C0 1.6584 0.92567 0.625 2.07143 0.625H26.9286C28.0743 0.625 29 1.6584 29 2.9375C29 4.2166 28.0743 5.25 26.9286 5.25H2.07143C0.92567 5.25 0 4.2166 0 2.9375ZM0 14.5C0 13.2209 0.92567 12.1875 2.07143 12.1875H26.9286C28.0743 12.1875 29 13.2209 29 14.5C29 15.7791 28.0743 16.8125 26.9286 16.8125H2.07143C0.92567 16.8125 0 15.7791 0 14.5ZM29 26.0625C29 27.3416 28.0743 28.375 26.9286 28.375H2.07143C0.92567 28.375 0 27.3416 0 26.0625C0 24.7834 0.92567 23.75 2.07143 23.75H26.9286C28.0743 23.75 29 24.7834 29 26.0625Z" fill="white"/>
</svg>
