<svg width="170" height="166" viewBox="0 0 170 166" fill="none" xmlns="http://www.w3.org/2000/svg">
<path d="M57.3507 56.8619C57.2362 56.8775 57.1465 56.9363 57.0936 57.0262L56.092 58.726L63.3836 62.8725L64.3853 61.1727C64.4381 61.0811 64.4293 60.9687 64.3853 60.8649C64.343 60.7612 64.2621 60.6592 64.1406 60.5917L57.7168 56.9397C57.5971 56.8706 57.4633 56.8481 57.3507 56.8619ZM55.9916 58.892L55.1678 60.3064L62.4594 64.4512L63.2833 63.0368L55.9916 58.892ZM55.0674 60.4811L53.7101 62.7843L61.0018 66.9291L62.3591 64.6259L55.0674 60.4811ZM53.1521 63.2771L44.4697 68.4871L44.4134 68.52C44.3641 68.5511 44.3148 68.5736 44.269 68.6064C43.9803 68.8156 43.7356 69.094 43.5437 69.4191C43.1723 70.0537 43.0948 70.7713 43.2779 71.425L58.6305 80.1555C59.2977 79.9826 59.8945 79.5607 60.2677 78.9261C60.4578 78.601 60.5617 78.2465 60.6004 77.8955C60.6145 77.8384 60.6145 77.7883 60.6145 77.7312V77.6655L60.8486 67.6536L53.1556 63.2771H53.1521ZM55.2787 66.4795C55.6378 66.4536 55.9863 66.5141 56.2927 66.6888C57.5179 67.3822 57.3401 69.5194 57.3383 70.9097C57.3313 72.3016 57.5161 74.4372 56.2927 75.1323C55.0674 75.8274 53.2735 74.6118 52.0501 73.915C50.8266 73.2181 48.8549 72.3137 48.8549 70.9218C48.8531 69.5298 50.8283 68.5909 52.0501 67.894C52.9672 67.3718 54.203 66.5608 55.2787 66.4795ZM42.9223 72.0405L41.8414 73.8717L41.7745 74.0031L40.507 76.2614C39.6198 77.8454 39.5511 79.2114 39.9049 80.4616C40.2588 81.7135 41.0686 82.853 41.9875 83.8283C44.4204 86.4116 48.5415 87.5235 54.3104 87.5235L58.2749 80.7694L42.9223 72.0405H42.9205H42.9223ZM40.6725 83.9493L48.2546 97.6357L49.7351 100.432C50.0273 100.971 50.3125 101.44 50.5924 101.879L51.3054 102.91C52.2226 104.096 53.1521 104.817 54.277 105.256C55.1237 105.586 56.099 105.763 57.2609 105.86L62.2147 106.001C64.8219 106.034 68.267 106.148 72.3459 106.287C72.5061 106.297 72.6293 106.297 72.7913 106.299L77.5127 106.43L80.229 106.155C81.2149 106.176 81.7536 105.363 81.7536 104.39C81.7536 103.418 81.2166 102.636 80.229 102.636L79.6059 102.361C79.3981 102.361 79.2379 102.204 79.2379 102C79.2379 101.796 79.3981 101.616 79.6059 101.616L80.229 101.353C81.2166 101.353 81.7536 100.56 81.7536 99.5879C81.7536 98.6144 81.2166 97.8328 80.229 97.8328L79.6059 97.5579C79.3981 97.5579 79.2379 97.4005 79.2379 97.1965V97.174C79.2379 96.9699 79.3981 96.8126 79.6059 96.8126L80.229 96.5376C81.2166 96.5376 81.7536 95.7561 81.7536 94.7843C81.7536 93.8107 81.2166 93.0188 80.229 93.0188L79.6059 92.7542C79.3981 92.7542 79.2379 92.5744 79.2379 92.3704C79.2379 92.168 79.3981 92.009 79.6059 92.009L80.229 91.7357C81.2166 91.7357 81.7536 90.9524 81.7536 89.9806C81.7536 89.0071 81.2149 88.1961 80.229 88.2152L77.5004 87.9402L72.7367 88.0716L62.0369 88.3691L58.2854 88.478L57.9281 88.4901L55.7135 88.5558C54.7998 88.5817 53.9231 88.58 53.0746 88.5558C52.8106 88.5489 52.5553 88.5351 52.2948 88.523C47.3691 88.2826 43.6247 87.1085 41.2076 84.5407C41.0281 84.3505 40.845 84.1534 40.6725 83.9493Z" fill="#F7941E"/>
<path d="M94.0712 26.6793C93.7878 26.6758 93.4903 26.6793 93.1804 26.6897L89.9853 26.8315L74.1644 27.205C74.432 27.2499 74.6873 27.3001 74.9443 27.3589C78.4105 28.137 81.3223 30.755 83.9963 34.8375C84.1372 35.0519 84.2692 35.2612 84.4083 35.4842C84.7111 35.9701 85.0227 36.4975 85.3202 37.0197C85.3501 37.0733 85.3677 37.1079 85.3994 37.1615L85.7321 37.7321L85.755 37.765L89.2723 43.786L104.625 35.0571C104.526 34.8946 104.417 34.7078 104.326 34.5522L103.556 33.2138L103.468 33.0945L102.122 30.8795C101.819 30.3849 101.484 29.9803 101.141 29.6396C100.671 29.0483 100.201 28.5555 99.694 28.1595C98.7451 27.4177 97.6449 26.9785 96.1415 26.7882L94.8845 26.7001C94.6222 26.6897 94.3529 26.681 94.0712 26.6793ZM72.1945 28.1041C71.691 28.1145 71.1928 28.1698 70.714 28.2909C69.781 28.5261 68.9043 28.9929 68.1315 29.8264C67.9959 30.0028 67.8551 30.1809 67.7195 30.3745L65.1141 34.5297C63.7832 36.7379 61.9647 39.6187 59.8029 43.0286C59.7184 43.1635 59.6551 43.2655 59.5688 43.4021L57.0972 47.3601L55.974 49.8173C55.4635 50.6507 55.9089 51.5136 56.7645 51.9995C57.6183 52.4854 58.5742 52.4249 59.0688 51.5828L59.6251 51.1885C59.729 51.0121 59.9473 50.9551 60.1269 51.0571C60.3047 51.1591 60.3856 51.3839 60.2818 51.5603L60.2025 52.2191C59.7096 53.0612 60.1374 53.9154 60.993 54.4013C61.8485 54.8872 62.8044 54.8267 63.2991 53.9846L63.8431 53.5903C63.947 53.4122 64.1652 53.3569 64.3448 53.4589C64.3571 53.4606 64.3589 53.4555 64.3589 53.4589C64.3712 53.4606 64.373 53.4676 64.373 53.4693C64.5525 53.5713 64.6106 53.7857 64.5068 53.9621L64.4399 54.6313C63.947 55.4734 64.3642 56.3172 65.2197 56.8031C66.0753 57.289 67.0418 57.2285 67.5347 56.3864L68.0804 55.9921C68.1843 55.814 68.4131 55.7691 68.5927 55.8711C68.7723 55.9731 68.8304 56.1875 68.7265 56.3639L68.6596 57.0331C68.1667 57.8752 68.5839 58.719 69.4395 59.2049C70.295 59.6908 71.2773 59.639 71.7544 58.7882L73.3581 56.5939L75.6291 52.4716L80.7167 43.1946L82.4982 39.9368L82.6655 39.6308L83.7129 37.7114C83.8414 37.4762 83.9717 37.248 84.102 37.0197C81.2219 32.1158 78.1993 29.1728 74.7172 28.3895C73.8933 28.2044 73.0395 28.0868 72.1998 28.1041H72.1945ZM104.982 35.6589L89.6402 44.3998C89.4572 45.0552 89.524 45.7728 89.8955 46.4074C90.0856 46.7325 90.3532 46.9987 90.6419 47.208C90.6894 47.2408 90.7264 47.265 90.7757 47.2944L90.832 47.3273L99.5144 52.5373L107.207 48.1607L106.975 38.1489V38.0832C106.964 38.0261 106.989 37.976 106.975 37.9189C106.936 37.5679 106.808 37.2238 106.618 36.8987C106.246 36.2641 105.648 35.8318 104.982 35.6589H104.981H104.982ZM101.909 40.4625C102.169 40.4746 102.414 40.5403 102.644 40.6717C103.868 41.3668 103.701 43.5231 103.701 44.9151C103.706 45.9595 103.801 47.4103 103.335 48.37C103.178 48.6899 102.949 48.9631 102.644 49.1377C101.421 49.8346 99.6359 48.6172 98.4124 47.9204C97.1907 47.2235 95.2172 46.3071 95.2172 44.9151C95.2208 43.5231 97.1889 42.5946 98.4124 41.8994C99.3313 41.3772 100.567 40.5593 101.641 40.4746C101.731 40.4677 101.822 40.459 101.909 40.4625ZM107.364 48.8853L100.083 53.0301L101.419 55.3437L108.711 51.1868L107.364 48.8853ZM108.822 51.3632L101.53 55.508L102.354 56.9224L109.646 52.7776L108.822 51.3632ZM109.746 52.9419L102.454 57.0884L103.445 58.7986C103.498 58.8902 103.599 58.9369 103.713 58.9525C103.826 58.9663 103.959 58.9438 104.079 58.8747L110.503 55.2244C110.624 55.1552 110.716 55.0532 110.76 54.9495C110.802 54.8457 110.79 54.7437 110.737 54.6538L109.748 52.9419H109.746Z" fill="#F7941E"/>
<path d="M116.304 56.5731C115.98 56.5887 115.643 56.6976 115.323 56.8792C114.467 57.3651 114.05 58.2193 114.543 59.0614L114.61 59.7306C114.714 59.907 114.658 60.1231 114.476 60.2234C114.297 60.3254 114.057 60.2805 113.953 60.1041L113.408 59.6978C112.915 58.8556 111.946 58.7951 111.093 59.281C110.237 59.7669 109.818 60.6211 110.313 61.4632L110.392 62.1324C110.494 62.3088 110.438 62.5232 110.258 62.6252C110.244 62.6287 110.244 62.6235 110.244 62.6252C110.23 62.6287 110.23 62.6356 110.23 62.6373C110.051 62.7394 109.832 62.6823 109.728 62.5059L109.172 62.1099C108.677 61.2678 107.723 61.1969 106.868 61.6828C106.012 62.1687 105.583 63.0229 106.077 63.865L106.155 64.5342C106.259 64.7106 106.179 64.9371 106 65.0391C105.82 65.1412 105.602 65.0841 105.498 64.9077L104.952 64.5118C104.459 63.6696 103.504 63.5988 102.648 64.0846C101.792 64.5705 101.347 65.4334 101.858 66.2669L102.982 68.7344L105.477 72.7253L111.087 81.7066L113.057 84.8537L113.247 85.1511L114.416 87.0151C114.561 87.2451 114.691 87.4664 114.828 87.6947C120.555 87.6843 124.641 86.5707 127.063 83.9995C127.982 83.0242 128.792 81.883 129.146 80.6328C129.454 79.5434 129.447 78.3658 128.855 77.0361L128.841 77.0136L127.428 74.4475L127.204 74.0412L126.493 72.7374C125.216 70.4981 123.6 67.5015 121.683 63.9532C121.608 63.8132 121.548 63.7111 121.472 63.5694L119.222 59.4781L117.631 57.2959C117.333 56.7634 116.833 56.5438 116.295 56.5731H116.304ZM128.427 84.1188C128.253 84.3245 128.072 84.5217 127.892 84.7119C125.474 87.278 121.729 88.4538 116.803 88.6924C116.545 88.7062 116.289 88.7184 116.024 88.7253C115.446 88.7408 114.818 88.7322 114.21 88.7253C114.147 88.7235 114.117 88.727 114.054 88.7253H113.297L106.294 88.7149V106.185H108.443L108.588 106.173L111.214 106.129C111.753 106.119 112.232 106.048 112.674 105.943C113.478 105.837 114.187 105.675 114.821 105.427C115.948 104.988 116.877 104.267 117.795 103.081L118.508 102.05C118.787 101.611 119.073 101.142 119.365 100.603L120.845 97.8069L128.426 84.1205L128.427 84.1188ZM103.678 87.935C103.298 87.935 102.926 88.0232 102.599 88.1667C102.546 88.1892 102.505 88.2169 102.454 88.2428L102.398 88.2757L93.4691 93.0793V101.829L102.398 106.633L102.454 106.665C102.505 106.693 102.546 106.721 102.599 106.743C102.926 106.885 103.298 106.963 103.678 106.963C104.421 106.963 105.086 106.667 105.57 106.185V88.7253C105.086 88.2428 104.421 87.935 103.678 87.935ZM101.317 93.024C101.676 92.9963 102.025 93.0568 102.331 93.2332C103.555 93.9283 103.379 96.0621 103.377 97.4541C103.373 98.8461 103.565 100.98 102.342 101.677C101.118 102.374 99.3137 101.165 98.0885 100.47C97.1713 99.9493 95.8369 99.2974 95.2278 98.419C95.0253 98.1268 94.9056 97.8034 94.9056 97.4541C94.8986 96.0621 96.865 95.1439 98.0885 94.4488C99.0074 93.9283 100.241 93.1053 101.317 93.024ZM86.0103 93.3093C85.9029 93.3093 85.8008 93.3733 85.7321 93.4632C85.6617 93.5531 85.6212 93.6655 85.6212 93.8021V101.106C85.6212 101.244 85.6635 101.367 85.7321 101.457C85.8008 101.547 85.9029 101.599 86.0103 101.599H88.003V93.3093H86.0103ZM88.1914 93.3093L88.2055 101.599H89.8532V93.3093H88.1914ZM90.0504 93.3093L90.0645 101.599L92.7597 101.611V93.3093H90.0504Z" fill="#F7941E"/>
<path d="M19.3417 124.783V131.25H15.2223V114.622H21.8978C23.8589 114.622 25.387 115.12 26.482 116.116C27.5752 117.112 28.1227 118.314 28.1227 119.72C28.1227 120.68 27.8234 121.619 27.2284 122.535C26.6316 123.453 25.6599 124.102 24.3131 124.479L28.4607 131.25H23.6371L19.8276 124.783H19.3417ZM19.3417 117.7V121.705H21.8978C22.5263 121.705 23.021 121.525 23.3836 121.166C23.7445 120.802 23.9258 120.325 23.9258 119.734C23.9258 119.139 23.7392 118.653 23.3696 118.274C22.9981 117.892 22.5069 117.7 21.8978 117.7H19.3417Z" fill="#011B0C"/>
<path d="M40.9712 114.581V117.659H34.8449V121.235H40.2459V124.313H34.8449V128.172H40.9712V131.25H30.7255V114.581H40.9712Z" fill="#011B0C"/>
<path d="M45.4421 128.988C43.7609 127.384 42.9212 125.35 42.9212 122.888C42.9212 120.426 43.7609 118.395 45.4421 116.794C47.1216 115.19 49.176 114.387 51.6036 114.387C53.4855 114.387 55.1561 114.878 56.6173 115.861C58.0819 116.839 59.103 118.195 59.6804 119.928H54.7653C54.121 118.715 53.0911 118.108 51.674 118.108C50.2604 118.108 49.1478 118.542 48.3363 119.409C47.5229 120.277 47.1181 121.435 47.1181 122.888C47.1181 124.34 47.5229 125.502 48.3363 126.374C49.1478 127.242 50.2604 127.674 51.674 127.674C53.0911 127.674 54.121 127.066 54.7653 125.848H59.6804C59.103 127.588 58.0819 128.947 56.6173 129.929C55.1561 130.908 53.4855 131.395 51.6036 131.395C49.176 131.395 47.1216 130.593 45.4421 128.988Z" fill="#011B0C"/>
<path d="M61.7319 131.25V114.622H65.8513V131.25H61.7319Z" fill="#011B0C"/>
<path d="M70.3967 128.988C68.7155 127.384 67.8758 125.35 67.8758 122.888C67.8758 120.426 68.7155 118.395 70.3967 116.794C72.0761 115.19 74.1305 114.387 76.5582 114.387C78.44 114.387 80.1107 114.878 81.5718 115.861C83.0365 116.839 84.0575 118.195 84.635 119.928H79.7199C79.0756 118.715 78.0457 118.108 76.6286 118.108C75.215 118.108 74.1024 118.542 73.2908 119.409C72.4775 120.277 72.0726 121.435 72.0726 122.888C72.0726 124.34 72.4775 125.502 73.2908 126.374C74.1024 127.242 75.215 127.674 76.6286 127.674C78.0457 127.674 79.0756 127.066 79.7199 125.848H84.635C84.0575 127.588 83.0365 128.947 81.5718 129.929C80.1107 130.908 78.44 131.395 76.5582 131.395C74.1305 131.395 72.0761 130.593 70.3967 128.988Z" fill="#011B0C"/>
<path d="M86.6865 114.622H90.8059V128.172H95.9463V131.25H86.6865V114.622Z" fill="#011B0C"/>
<path d="M108.385 131.25L107.442 128.456H101.372L100.428 131.25H96.0413L101.921 114.581H106.935L112.793 131.25H108.385ZM102.407 125.378H106.407L104.407 119.457L102.407 125.378Z" fill="#011B0C"/>
<path d="M118.34 124.783V131.25H114.221V114.622H120.896C122.858 114.622 124.386 115.12 125.481 116.116C126.574 117.112 127.121 118.314 127.121 119.72C127.121 120.68 126.822 121.619 126.227 122.535C125.63 123.453 124.658 124.102 123.312 124.479L127.459 131.25H122.636L118.826 124.783H118.34ZM118.34 117.7V121.705H120.896C121.525 121.705 122.02 121.525 122.382 121.166C122.743 120.802 122.924 120.325 122.924 119.734C122.924 119.139 122.738 118.653 122.368 118.274C121.997 117.892 121.506 117.7 120.896 117.7H118.34Z" fill="#011B0C"/>
<path d="M128.562 117.7V114.622H141.92V117.7H137.294V131.25H133.167V117.7H128.562Z" fill="#011B0C"/>
<path d="M154.026 114.581V117.659H147.9V121.235H153.301V124.313H147.9V128.172H154.026V131.25H143.781V114.581H154.026Z" fill="#011B0C"/>
</svg>
