<svg width="29" height="29" viewBox="0 0 29 29" fill="none" xmlns="http://www.w3.org/2000/svg">
<path d="M23.5625 11.7812C23.5625 14.3811 22.7186 16.7826 21.2969 18.7311L28.4676 25.9074C29.1756 26.6154 29.1756 27.7652 28.4676 28.4732C27.7596 29.1812 26.6098 29.1812 25.9018 28.4732L18.7311 21.2969C16.7826 22.7242 14.3811 23.5625 11.7812 23.5625C5.27324 23.5625 0 18.2893 0 11.7812C0 5.27324 5.27324 0 11.7812 0C18.2893 0 23.5625 5.27324 23.5625 11.7812ZM11.7812 19.9375C16.2842 19.9375 19.9375 16.2842 19.9375 11.7812C19.9375 7.27832 16.2842 3.625 11.7812 3.625C7.27832 3.625 3.625 7.27832 3.625 11.7812C3.625 16.2842 7.27832 19.9375 11.7812 19.9375Z" fill="white"/>
</svg>
